<?xml version="1.0"?>
<svg xmlns="http://www.w3.org/2000/svg" height="512px" viewBox="-42 0 469 469.33334" width="512px" class=""><g><g><path d="m277.5 42.667969v85.332031h-234.667969v-85.332031l15.4375-30.875c3.613281-7.226563 11-11.792969 19.082031-11.792969h165.628907c8.082031 0 15.46875 4.566406 19.082031 11.792969zm0 0" fill="#3e190c" data-original="#3E190C" class="" data-old_color="#3e190c" style="fill:#3E190C"/><path d="m237.488281 448h-154.644531c-10.691406 0-19.734375-7.914062-21.144531-18.515625l-40.199219-301.484375v-85.332031h277.332031v85.332031l-40.195312 301.484375c-1.414063 10.601563-10.457031 18.515625-21.148438 18.515625zm0 0" fill="#e8a073" data-original="#E8A073" class=""/><path d="m173.300781 429.484375 36.980469-277.332031c.8125-6.09375-1.046875-12.246094-5.097656-16.871094-4.050782-4.628906-9.902344-7.28125-16.050782-7.28125h-167.632812l40.199219 301.484375c1.410156 10.601563 10.453125 18.515625 21.144531 18.515625h69.3125c10.691406 0 19.734375-7.914062 21.144531-18.515625zm0 0" fill="#f9dcc9" data-original="#F9DCC9" class=""/><path d="m21.5 42.667969h277.332031c11.785157 0 21.335938 9.550781 21.335938 21.332031v42.667969c0 11.78125-9.550781 21.332031-21.335938 21.332031h-277.332031c-11.78125 0-21.332031-9.550781-21.332031-21.332031v-42.667969c0-11.78125 9.550781-21.332031 21.332031-21.332031zm0 0" fill="#653430" data-original="#653430" class=""/><path d="m21.5 42.667969h192c11.78125 0 21.332031 9.550781 21.332031 21.332031v42.667969c0 11.78125-9.550781 21.332031-21.332031 21.332031h-192c-11.78125 0-21.332031-9.550781-21.332031-21.332031v-42.667969c0-11.78125 9.550781-21.332031 21.332031-21.332031zm0 0" fill="#7c534f" data-original="#7C534F" class=""/><path d="m64.167969 42.667969c11.78125 0 21.332031 9.550781 21.332031 21.332031v42.667969c0 11.78125-9.550781 21.332031-21.332031 21.332031-11.785157 0-21.335938-9.550781-21.335938-21.332031v-42.667969c0-11.78125 9.550781-21.332031 21.335938-21.332031zm0 0" fill="#93716e" data-original="#93716E"/><path d="m58.269531 11.792969-15.4375 30.875h149.335938c11.78125 0 21.332031-9.550781 21.332031-21.335938 0-11.78125-9.550781-21.332031-21.332031-21.332031h-114.816407c-8.082031 0-15.46875 4.566406-19.082031 11.792969zm0 0" fill="#653430" data-original="#653430" class=""/><path d="m21.5 192 21.332031 149.332031h234.667969l21.332031-149.332031zm0 0" fill="#aa644a" data-original="#AA644A" class=""/><path d="m21.5 192 21.332031 149.332031h128l21.335938-149.332031zm0 0" fill="#b77b65" data-original="#B77B65" class=""/><path d="m245.5 192c-76.582031 0-138.667969 62.082031-138.667969 138.667969 0 76.582031 62.085938 138.664062 138.667969 138.664062s138.667969-62.082031 138.667969-138.664062c0-76.585938-62.085938-138.667969-138.667969-138.667969zm0 192c-29.457031 0-53.332031-23.878906-53.332031-53.332031 0-29.457031 23.875-53.335938 53.332031-53.335938s53.332031 23.878907 53.332031 53.335938c0 29.453125-23.875 53.332031-53.332031 53.332031zm0 0" fill="#c35422" data-original="#C35422" class=""/><path d="m224.167969 448c63.238281-.003906 115.097656-50.128906 117.253906-113.332031s-46.164063-116.746094-109.257813-121.0625c-63.09375-4.3125-118.253906 42.148437-124.722656 105.058593-.34375 3.964844-.609375 7.949219-.609375 12.003907 0 4.050781.269531 8.035156.609375 12 6.160156 59.839843 56.570313 105.328125 116.726563 105.332031zm21.332031-170.667969c29.457031 0 53.332031 23.878907 53.332031 53.335938 0 29.453125-23.875 53.332031-53.332031 53.332031s-53.332031-23.878906-53.332031-53.332031c0-29.457031 23.875-53.335938 53.332031-53.335938zm0 0" fill="#e18850" data-original="#E18850"/><path d="m349.152344 390.53125c5.082031-8.777344 4.757812-20.054688 7.4375-30.078125 2.59375-9.691406 8.589844-19.273437 8.589844-29.785156 0-10.507813-5.992188-20.082031-8.582032-29.773438-2.679687-10.023437-2.355468-21.296875-7.433594-30.074219-5.148437-8.902343-15.125-14.226562-22.347656-21.453124-7.222656-7.226563-12.550781-17.203126-21.449218-22.355469-8.777344-5.078125-20.054688-4.757813-30.078126-7.4375-9.695312-2.59375-19.277343-8.585938-29.789062-8.585938-10.503906 0-20.082031 5.992188-29.769531 8.582031-10.023438 2.679688-21.300781 2.355469-30.078125 7.429688-8.898438 5.152344-14.226563 15.125-21.449219 22.347656-7.226563 7.226563-17.207031 12.550782-22.355469 21.453125-5.082031 8.777344-4.757812 20.054688-7.4375 30.078125-2.59375 9.695313-8.589844 19.277344-8.589844 29.789063 0 10.503906 5.992188 20.082031 8.582032 29.769531 2.679687 10.023438 2.355468 21.296875 7.433594 30.074219 5.148437 8.902343 15.125 14.230469 22.347656 21.453125 7.222656 7.226562 12.550781 17.203125 21.449218 22.355468 8.777344 5.078126 20.054688 4.757813 30.078126 7.4375 9.695312 2.59375 19.277343 8.589844 29.789062 8.589844 10.503906 0 20.082031-5.996094 29.769531-8.585937 10.023438-2.679688 21.300781-2.351563 30.078125-7.429688 8.898438-5.148437 14.226563-15.125 21.449219-22.347656 7.226563-7.226563 17.207031-12.550781 22.355469-21.453125zm-103.652344-6.53125c-29.457031 0-53.332031-23.878906-53.332031-53.332031 0-29.457031 23.875-53.335938 53.332031-53.335938s53.332031 23.878907 53.332031 53.335938c0 29.453125-23.875 53.332031-53.332031 53.332031zm0 0" fill="#b80900" data-original="#E44099" class="" data-old_color="#b80900" style="fill:#E44099"/><path d="m325.484375 270.820312c-5.148437-8.902343-15.125-14.226562-22.347656-21.453124-7.222657-7.226563-12.550781-17.203126-21.449219-22.355469-8.777344-5.078125-20.054688-4.757813-30.078125-7.4375-5.9375-1.585938-11.855469-4.335938-17.945313-6.320313-6.089843 1.980469-12.003906 4.730469-17.933593 6.316406-10.023438 2.679688-21.300781 2.355469-30.078125 7.429688-8.898438 5.152344-14.226563 15.125-21.449219 22.347656-7.226563 7.226563-17.207031 12.550782-22.355469 21.453125-5.082031 8.777344-4.757812 20.054688-7.4375 30.078125-2.59375 9.695313-8.589844 19.277344-8.589844 29.789063 0 10.503906 5.992188 20.082031 8.582032 29.769531 2.679687 10.023438 2.355468 21.296875 7.433594 30.074219 5.148437 8.902343 15.125 14.230469 22.347656 21.453125 7.222656 7.226562 12.550781 17.203125 21.449218 22.355468 8.777344 5.078126 20.054688 4.757813 30.078126 7.4375 5.9375 1.585938 11.855468 4.339844 17.945312 6.320313 6.089844-1.980469 12.003906-4.730469 17.933594-6.316406 10.023437-2.679688 21.300781-2.351563 30.078125-7.429688 8.898437-5.148437 14.226562-15.125 21.449219-22.347656 7.226562-7.226563 17.207031-12.550781 22.355468-21.453125 5.082032-8.777344 4.757813-20.054688 7.4375-30.078125 2.59375-9.691406 8.589844-19.273437 8.589844-29.785156 0-10.507813-5.992188-20.082031-8.582031-29.773438-2.679688-10.023437-2.355469-21.296875-7.433594-30.074219zm-79.984375 113.179688c-29.457031 0-53.332031-23.878906-53.332031-53.332031 0-29.457031 23.875-53.335938 53.332031-53.335938s53.332031 23.878907 53.332031 53.335938c0 29.453125-23.875 53.332031-53.332031 53.332031zm0 0" fill="#e92c24" data-original="#EE64C2" class="" data-old_color="#e92c24" style="fill:#EE64C2"/><path d="m170.832031 341.332031c0 35.347657 28.65625 64 64 64 35.347657 0 64-28.652343 64-64 0-1.824219-.386719-3.542969-.535156-5.332031-2.738281 27.898438-26.65625 48.886719-54.671875 47.972656-28.015625-.914062-50.515625-23.414062-51.429688-51.429687-.914062-28.019531 20.070313-51.933594 47.96875-54.671875-1.785156-.148438-3.503906-.539063-5.332031-.539063-35.34375 0-64 28.65625-64 64zm0 0" fill="#b80900" data-original="#E44099" class="" data-old_color="#b80900" style="fill:#E44099"/><path d="m266.832031 256c-2.828125 0-5.542969-1.121094-7.542969-3.121094-2-2.003906-3.125-4.714844-3.121093-7.546875v-21.332031c.003906-5.886719 4.777343-10.65625 10.664062-10.65625s10.664063 4.769531 10.667969 10.65625v21.332031c0 2.832031-1.121094 5.542969-3.121094 7.546875-2.003906 2-4.714844 3.121094-7.546875 3.121094zm0 0" fill="#3e190c" data-original="#3E190C" class="" data-old_color="#3e190c" style="fill:#3E190C"/><path d="m138.832031 320c-2.828125 0-5.542969-1.121094-7.542969-3.121094-2-2.003906-3.125-4.714844-3.121093-7.546875v-21.332031c.003906-5.886719 4.777343-10.65625 10.664062-10.65625s10.664063 4.769531 10.667969 10.65625v21.332031c0 2.832031-1.121094 5.542969-3.121094 7.546875-2.003906 2-4.714844 3.121094-7.546875 3.121094zm0 0" fill="#653430" data-original="#653430" class=""/><path d="m181.5 277.332031c-4.3125 0-8.203125-2.597656-9.851562-6.582031-1.652344-3.988281-.738282-8.574219 2.308593-11.625l21.335938-21.332031c4.164062-4.167969 10.917969-4.167969 15.082031 0 4.164062 4.164062 4.164062 10.917969 0 15.082031l-21.332031 21.332031c-2 2.003907-4.714844 3.128907-7.542969 3.125zm0 0" fill="#653430" data-original="#653430" class=""/><path d="m330.832031 277.332031h-21.332031c-5.890625 0-10.667969-4.773437-10.667969-10.664062s4.777344-10.667969 10.667969-10.667969h21.332031c5.890625 0 10.667969 4.777344 10.667969 10.667969s-4.777344 10.664062-10.667969 10.664062zm0 0" fill="#3e190c" data-original="#3E190C" class="" data-old_color="#3e190c" style="fill:#3E190C"/><path d="m245.5 448c-2.828125.003906-5.542969-1.121094-7.542969-3.125l-21.332031-21.332031c-4.160156-4.167969-4.160156-10.917969.003906-15.082031 4.164063-4.164063 10.914063-4.164063 15.078125-.003907l21.335938 21.335938c3.046875 3.050781 3.960937 7.636719 2.308593 11.621093-1.648437 3.988282-5.539062 6.585938-9.851562 6.585938zm0 0" fill="#3e190c" data-original="#3E190C" class="" data-old_color="#3e190c" style="fill:#3E190C"/><path d="m181.5 426.667969h-21.332031c-5.890625 0-10.667969-4.777344-10.667969-10.667969s4.777344-10.667969 10.667969-10.667969h21.332031c5.894531-.003906 10.675781 4.773438 10.675781 10.667969s-4.78125 10.671875-10.675781 10.667969zm0 0" fill="#653430" data-original="#653430" class=""/><g fill="#3e190c"><path d="m352.167969 384c-2.832031.003906-5.546875-1.121094-7.542969-3.125l-21.332031-21.332031c-4.167969-4.167969-4.167969-10.917969 0-15.085938 4.164062-4.164062 10.917969-4.164062 15.082031 0l21.332031 21.335938c3.050781 3.050781 3.964844 7.636719 2.3125 11.621093-1.648437 3.988282-5.539062 6.585938-9.851562 6.585938zm0 0" data-original="#000000" class="active-path" style="fill:#000000"/><path d="m352.167969 320h-21.335938c-5.890625 0-10.664062-4.777344-10.664062-10.667969s4.773437-10.664062 10.664062-10.664062h21.335938c5.894531-.007813 10.675781 4.769531 10.675781 10.664062s-4.78125 10.671875-10.675781 10.667969zm0 0" data-original="#000000" class="active-path" style="fill:#000000"/><path d="m138.832031 384c-4.3125 0-8.199219-2.597656-9.851562-6.585938-1.652344-3.984374-.738281-8.570312 2.3125-11.621093l21.332031-21.335938c4.164062-4.160156 10.914062-4.160156 15.078125.003907 4.164063 4.164062 4.167969 10.914062.003906 15.082031l-21.332031 21.332031c-1.996094 2.003906-4.710938 3.128906-7.542969 3.125zm0 0" data-original="#000000" class="active-path" style="fill:#000000"/><path d="m309.5 426.667969c-2.828125 0-5.542969-1.121094-7.542969-3.125-2.003906-2-3.125-4.714844-3.125-7.542969v-21.332031c-.003906-5.894531 4.773438-10.679688 10.667969-10.679688s10.671875 4.785157 10.667969 10.679688v21.332031c0 2.828125-1.121094 5.542969-3.125 7.542969-2 2.003906-4.714844 3.125-7.542969 3.125zm0 0" data-original="#000000" class="active-path" style="fill:#000000"/></g></g></g> </svg>
