<?xml version="1.0"?>
<svg xmlns="http://www.w3.org/2000/svg" xmlns:xlink="http://www.w3.org/1999/xlink" version="1.1" id="Layer_1" x="0px" y="0px" viewBox="0 0 512 512" style="enable-background:new 0 0 512 512;" xml:space="preserve" class=""><g><circle style="fill:#2D356F" cx="256" cy="256" r="256" data-original="#662E57" class="" data-old_color="#662E57"/><path style="fill:#191D3A" d="M512,256c0-7.515-0.343-14.949-0.978-22.3L408.026,130.703l-265.688,40.963l-63.672,222.43  l108.541,108.541C209.098,508.731,232.166,512,256,512C397.385,512,512,397.385,512,256z" data-original="#590F38" class="active-path" data-old_color="#590F38"/><path style="fill:#FFCF35;" d="M256,59C147.2,59,59,147.2,59,256s88.2,197,197,197s197-88.2,197-197S364.8,59,256,59z M256,320.5  c-35.622,0-64.5-28.878-64.5-64.5s28.878-64.5,64.5-64.5s64.5,28.878,64.5,64.5S291.622,320.5,256,320.5z" data-original="#FFCF35" class=""/><path style="fill:#FFB344;" d="M256,59c-0.111,0-0.222,0.004-0.333,0.004v132.504c0.112-0.001,0.221-0.008,0.333-0.008  c35.622,0,64.5,28.878,64.5,64.5s-28.878,64.5-64.5,64.5c-0.112,0-0.222-0.008-0.333-0.008v132.504c0.111,0,0.222,0.004,0.333,0.004  c108.8,0,197-88.2,197-197S364.8,59,256,59z" data-original="#FFB344" class=""/><path style="fill:#FF81AE;" d="M453,256c0-108.774-88.158-196.958-196.922-197C147.497,58.958,59.913,145.75,59.007,254.328  c-0.21,25.127,4.309,49.164,12.687,71.307C73.2,329.613,74,333.822,74,338.076v41.878c0,13.128,10.642,23.77,23.77,23.77l0,0  c13.128,0,23.77-10.642,23.77-23.77v-9.316c3.667,8.397,12.041,14.268,21.789,14.268l0,0c10.766,0,19.856-7.16,22.779-16.977v32.823  c0,13.128,10.642,23.77,23.77,23.77l0,0c13.128,0,23.77-10.642,23.77-23.77v-32.818c0-13.219,10.716-23.935,23.935-23.935h32.353  c13.219,0,23.935,10.716,23.935,23.935v20.295c0,13.128,10.642,23.77,23.77,23.77l0,0c13.128,0,23.77-10.642,23.77-23.77v-35.663  c3.651,8.435,12.045,14.339,21.821,14.339l0,0c10.725,0,19.788-7.105,22.747-16.864v4.094c0,13.128,10.642,23.77,23.77,23.77l0,0  c13.128,0,23.77-10.642,23.77-23.77v-2.175c0-6.606,1.362-13.134,3.94-19.216C447.453,309.158,453,283.231,453,256z M191.5,256  c0-35.622,28.878-64.5,64.5-64.5s64.5,28.878,64.5,64.5s-28.878,64.5-64.5,64.5S191.5,291.622,191.5,256z" data-original="#FF81AE" class=""/><path style="fill:#FF3F84;" d="M256.078,59c-0.137,0-0.274,0.005-0.411,0.005v132.503c0.112-0.001,0.221-0.008,0.333-0.008  c35.622,0,64.5,28.878,64.5,64.5s-28.878,64.5-64.5,64.5c-0.112,0-0.222-0.008-0.333-0.008V344h14.268  c13.219,0,23.935,10.716,23.935,23.935v20.295c0,13.128,10.642,23.77,23.77,23.77s23.77-10.642,23.77-23.77v-35.663  c3.651,8.435,12.045,14.339,21.821,14.339c10.725,0,19.788-7.105,22.747-16.864v4.094c0,13.128,10.642,23.77,23.77,23.77  s23.77-10.642,23.77-23.77v-2.175c0-6.607,1.362-13.134,3.94-19.216C447.453,309.158,453,283.231,453,256  C453,147.226,364.842,59.042,256.078,59z" data-original="#FF3F84" class=""/><rect x="132.986" y="207.004" transform="matrix(-0.8471 0.5314 -0.5314 -0.8471 370.2075 334.4999)" style="fill:#F1333F;" width="8" height="27" data-original="#F1333F" class=""/><rect x="410.547" y="255.08" transform="matrix(-0.8471 0.5314 -0.5314 -0.8471 908.4412 275.8042)" style="fill:#E0E0E0;" width="8" height="27" data-original="#E0E0E0" class=""/><rect x="245.559" y="90.955" transform="matrix(-0.8471 0.5314 -0.5314 -0.8471 516.472 60.3224)" style="fill:#FFDC00;" width="8" height="27" data-original="#FFDC00" class=""/><g>
	<polygon style="fill:#FFC000;" points="255.667,106.641 255.667,116.546 260.126,113.748  " data-original="#FFC000" class=""/>
	
		<rect x="350.55" y="283.083" transform="matrix(-0.8471 0.5314 -0.5314 -0.8471 812.5012 359.4114)" style="fill:#FFC000;" width="8" height="27" data-original="#FFC000" class=""/>
</g><rect x="181.433" y="133.931" transform="matrix(-0.8457 -0.5336 0.5336 -0.8457 263.5864 371.0669)" style="fill:#FFFFFF;" width="8" height="26.999" data-original="#FFFFFF" class=""/><rect x="335.561" y="123.071" transform="matrix(-0.5465 -0.8375 0.8375 -0.5465 410.7492 495.5766)" style="fill:#AE283F;" width="7.999" height="27.001" data-original="#AE283F" class=""/><polygon style="fill:#983262" points="114.648,294.08 118.316,286.973 142.338,299.356 138.67,306.464 " data-original="#983262" class="" data-old_color="#983262"/><polygon style="fill:#2D356F" points="366,192.108 369.668,185 393.69,197.384 390.022,204.491 " data-original="#662E57" class="" data-old_color="#662E57"/></g> </svg>
